<mxfile host="app.diagrams.net" modified="2024-04-04T17:53:00.193Z" agent="Mozilla/5.0 (Windows NT 10.0; Win64; x64) AppleWebKit/537.36 (KHTML, like Gecko) Chrome/123.0.0.0 Safari/537.36" etag="dBkxSkiyMIyy2qEkf_Vr" version="24.2.2" type="device">
  <diagram name="Page-1" id="0783ab3e-0a74-02c8-0abd-f7b4e66b4bec">
    <mxGraphModel dx="893" dy="1034" grid="1" gridSize="10" guides="1" tooltips="1" connect="1" arrows="1" fold="1" page="1" pageScale="1" pageWidth="850" pageHeight="1100" background="none" math="0" shadow="0">
      <root>
        <mxCell id="0" />
        <mxCell id="1" parent="0" />
        <mxCell id="1c1d494c118603dd-1" value="Login" style="swimlane;html=1;childLayout=stackLayout;startSize=20;rounded=0;shadow=0;comic=0;labelBackgroundColor=none;strokeWidth=1;fontFamily=Verdana;fontSize=12;align=center;" parent="1" vertex="1">
          <mxGeometry x="60" y="30" width="500" height="990" as="geometry" />
        </mxCell>
        <mxCell id="1c1d494c118603dd-2" value="user" style="swimlane;html=1;startSize=20;" parent="1c1d494c118603dd-1" vertex="1">
          <mxGeometry y="20" width="250" height="970" as="geometry" />
        </mxCell>
        <mxCell id="HRE3_yIJ3wqLc0qZuIb_-1" value="" style="ellipse;html=1;shape=startState;fillColor=#000000;strokeColor=#ff0000;" vertex="1" parent="1c1d494c118603dd-2">
          <mxGeometry y="65" width="30" height="30" as="geometry" />
        </mxCell>
        <mxCell id="HRE3_yIJ3wqLc0qZuIb_-2" value="" style="edgeStyle=orthogonalEdgeStyle;html=1;verticalAlign=bottom;endArrow=open;endSize=8;strokeColor=#ff0000;rounded=0;entryX=0;entryY=0.5;entryDx=0;entryDy=0;" edge="1" source="HRE3_yIJ3wqLc0qZuIb_-1" parent="1c1d494c118603dd-2" target="HRE3_yIJ3wqLc0qZuIb_-4">
          <mxGeometry relative="1" as="geometry">
            <mxPoint x="45" y="130" as="targetPoint" />
          </mxGeometry>
        </mxCell>
        <mxCell id="HRE3_yIJ3wqLc0qZuIb_-18" value="" style="edgeStyle=orthogonalEdgeStyle;rounded=0;orthogonalLoop=1;jettySize=auto;html=1;" edge="1" parent="1c1d494c118603dd-2" source="HRE3_yIJ3wqLc0qZuIb_-4" target="HRE3_yIJ3wqLc0qZuIb_-5">
          <mxGeometry relative="1" as="geometry" />
        </mxCell>
        <mxCell id="HRE3_yIJ3wqLc0qZuIb_-4" value="open application" style="rounded=1;whiteSpace=wrap;html=1;" vertex="1" parent="1c1d494c118603dd-2">
          <mxGeometry x="60" y="50" width="70" height="60" as="geometry" />
        </mxCell>
        <mxCell id="HRE3_yIJ3wqLc0qZuIb_-20" value="" style="edgeStyle=orthogonalEdgeStyle;rounded=0;orthogonalLoop=1;jettySize=auto;html=1;entryX=0.5;entryY=0;entryDx=0;entryDy=0;" edge="1" parent="1c1d494c118603dd-2" source="HRE3_yIJ3wqLc0qZuIb_-5" target="HRE3_yIJ3wqLc0qZuIb_-16">
          <mxGeometry relative="1" as="geometry">
            <Array as="points">
              <mxPoint x="200" y="230" />
              <mxPoint x="105" y="230" />
            </Array>
          </mxGeometry>
        </mxCell>
        <mxCell id="HRE3_yIJ3wqLc0qZuIb_-49" value="Yes" style="edgeLabel;html=1;align=center;verticalAlign=middle;resizable=0;points=[];" vertex="1" connectable="0" parent="HRE3_yIJ3wqLc0qZuIb_-20">
          <mxGeometry x="-0.6328" y="-1" relative="1" as="geometry">
            <mxPoint as="offset" />
          </mxGeometry>
        </mxCell>
        <mxCell id="HRE3_yIJ3wqLc0qZuIb_-5" value="have an account" style="rhombus;whiteSpace=wrap;html=1;" vertex="1" parent="1c1d494c118603dd-2">
          <mxGeometry x="160" y="40" width="80" height="80" as="geometry" />
        </mxCell>
        <mxCell id="HRE3_yIJ3wqLc0qZuIb_-32" value="" style="edgeStyle=orthogonalEdgeStyle;rounded=0;orthogonalLoop=1;jettySize=auto;html=1;" edge="1" parent="1c1d494c118603dd-2" source="HRE3_yIJ3wqLc0qZuIb_-16" target="HRE3_yIJ3wqLc0qZuIb_-31">
          <mxGeometry relative="1" as="geometry" />
        </mxCell>
        <mxCell id="HRE3_yIJ3wqLc0qZuIb_-16" value="Email and password entry" style="rounded=1;whiteSpace=wrap;html=1;" vertex="1" parent="1c1d494c118603dd-2">
          <mxGeometry x="60" y="330" width="90" height="60" as="geometry" />
        </mxCell>
        <mxCell id="HRE3_yIJ3wqLc0qZuIb_-17" value="infor email and password entry" style="rounded=1;whiteSpace=wrap;html=1;" vertex="1" parent="1c1d494c118603dd-2">
          <mxGeometry x="150" y="240" width="90" height="60" as="geometry" />
        </mxCell>
        <mxCell id="HRE3_yIJ3wqLc0qZuIb_-31" value="verify email" style="rhombus;whiteSpace=wrap;html=1;" vertex="1" parent="1c1d494c118603dd-2">
          <mxGeometry x="65" y="440" width="80" height="80" as="geometry" />
        </mxCell>
        <mxCell id="1c1d494c118603dd-3" value="application" style="swimlane;html=1;startSize=20;" parent="1c1d494c118603dd-1" vertex="1">
          <mxGeometry x="250" y="20" width="250" height="970" as="geometry" />
        </mxCell>
        <mxCell id="HRE3_yIJ3wqLc0qZuIb_-3" value="" style="ellipse;html=1;shape=endState;fillColor=#000000;strokeColor=#ff0000;" vertex="1" parent="1c1d494c118603dd-3">
          <mxGeometry x="110" y="920" width="30" height="30" as="geometry" />
        </mxCell>
        <mxCell id="HRE3_yIJ3wqLc0qZuIb_-6" value="Register" style="rounded=1;whiteSpace=wrap;html=1;" vertex="1" parent="1c1d494c118603dd-3">
          <mxGeometry x="65" y="130" width="120" height="60" as="geometry" />
        </mxCell>
        <mxCell id="HRE3_yIJ3wqLc0qZuIb_-22" value="Save data" style="rounded=1;whiteSpace=wrap;html=1;" vertex="1" parent="1c1d494c118603dd-3">
          <mxGeometry x="80" y="310" width="90" height="60" as="geometry" />
        </mxCell>
        <mxCell id="HRE3_yIJ3wqLc0qZuIb_-25" value="Verify email" style="rounded=1;whiteSpace=wrap;html=1;" vertex="1" parent="1c1d494c118603dd-3">
          <mxGeometry x="10" y="380" width="90" height="60" as="geometry" />
        </mxCell>
        <mxCell id="HRE3_yIJ3wqLc0qZuIb_-24" style="edgeStyle=orthogonalEdgeStyle;rounded=0;orthogonalLoop=1;jettySize=auto;html=1;exitX=0.5;exitY=1;exitDx=0;exitDy=0;entryX=1;entryY=0.5;entryDx=0;entryDy=0;" edge="1" parent="1c1d494c118603dd-3" source="HRE3_yIJ3wqLc0qZuIb_-22" target="HRE3_yIJ3wqLc0qZuIb_-25">
          <mxGeometry relative="1" as="geometry" />
        </mxCell>
        <mxCell id="HRE3_yIJ3wqLc0qZuIb_-37" style="edgeStyle=orthogonalEdgeStyle;rounded=0;orthogonalLoop=1;jettySize=auto;html=1;exitX=0.5;exitY=1;exitDx=0;exitDy=0;entryX=0.5;entryY=0;entryDx=0;entryDy=0;" edge="1" parent="1c1d494c118603dd-3" source="HRE3_yIJ3wqLc0qZuIb_-34" target="HRE3_yIJ3wqLc0qZuIb_-36">
          <mxGeometry relative="1" as="geometry" />
        </mxCell>
        <mxCell id="HRE3_yIJ3wqLc0qZuIb_-34" value="validation" style="rounded=1;whiteSpace=wrap;html=1;" vertex="1" parent="1c1d494c118603dd-3">
          <mxGeometry x="85" y="510" width="90" height="60" as="geometry" />
        </mxCell>
        <mxCell id="HRE3_yIJ3wqLc0qZuIb_-41" value="" style="edgeStyle=orthogonalEdgeStyle;rounded=0;orthogonalLoop=1;jettySize=auto;html=1;" edge="1" parent="1c1d494c118603dd-3" source="HRE3_yIJ3wqLc0qZuIb_-36" target="HRE3_yIJ3wqLc0qZuIb_-40">
          <mxGeometry relative="1" as="geometry" />
        </mxCell>
        <mxCell id="HRE3_yIJ3wqLc0qZuIb_-53" value="Yes" style="edgeLabel;html=1;align=center;verticalAlign=middle;resizable=0;points=[];" vertex="1" connectable="0" parent="HRE3_yIJ3wqLc0qZuIb_-41">
          <mxGeometry x="0.16" y="-1" relative="1" as="geometry">
            <mxPoint as="offset" />
          </mxGeometry>
        </mxCell>
        <mxCell id="HRE3_yIJ3wqLc0qZuIb_-36" value="valid?" style="rhombus;whiteSpace=wrap;html=1;" vertex="1" parent="1c1d494c118603dd-3">
          <mxGeometry x="90" y="620" width="80" height="80" as="geometry" />
        </mxCell>
        <mxCell id="HRE3_yIJ3wqLc0qZuIb_-44" style="edgeStyle=orthogonalEdgeStyle;rounded=0;orthogonalLoop=1;jettySize=auto;html=1;exitX=1;exitY=0.5;exitDx=0;exitDy=0;entryX=0.5;entryY=0;entryDx=0;entryDy=0;" edge="1" parent="1c1d494c118603dd-3" source="HRE3_yIJ3wqLc0qZuIb_-40" target="HRE3_yIJ3wqLc0qZuIb_-42">
          <mxGeometry relative="1" as="geometry" />
        </mxCell>
        <mxCell id="HRE3_yIJ3wqLc0qZuIb_-55" value="No" style="edgeLabel;html=1;align=center;verticalAlign=middle;resizable=0;points=[];" vertex="1" connectable="0" parent="HRE3_yIJ3wqLc0qZuIb_-44">
          <mxGeometry x="-0.4467" y="-2" relative="1" as="geometry">
            <mxPoint x="-1" as="offset" />
          </mxGeometry>
        </mxCell>
        <mxCell id="HRE3_yIJ3wqLc0qZuIb_-45" style="edgeStyle=orthogonalEdgeStyle;rounded=0;orthogonalLoop=1;jettySize=auto;html=1;exitX=0;exitY=0.5;exitDx=0;exitDy=0;entryX=0.5;entryY=0;entryDx=0;entryDy=0;" edge="1" parent="1c1d494c118603dd-3" source="HRE3_yIJ3wqLc0qZuIb_-40" target="HRE3_yIJ3wqLc0qZuIb_-43">
          <mxGeometry relative="1" as="geometry" />
        </mxCell>
        <mxCell id="HRE3_yIJ3wqLc0qZuIb_-54" value="Yes" style="edgeLabel;html=1;align=center;verticalAlign=middle;resizable=0;points=[];" vertex="1" connectable="0" parent="HRE3_yIJ3wqLc0qZuIb_-45">
          <mxGeometry x="-0.4294" y="3" relative="1" as="geometry">
            <mxPoint x="-1" as="offset" />
          </mxGeometry>
        </mxCell>
        <mxCell id="HRE3_yIJ3wqLc0qZuIb_-40" value="isTutor" style="rhombus;whiteSpace=wrap;html=1;" vertex="1" parent="1c1d494c118603dd-3">
          <mxGeometry x="90" y="730" width="80" height="80" as="geometry" />
        </mxCell>
        <mxCell id="HRE3_yIJ3wqLc0qZuIb_-47" style="edgeStyle=orthogonalEdgeStyle;rounded=0;orthogonalLoop=1;jettySize=auto;html=1;exitX=0.5;exitY=1;exitDx=0;exitDy=0;entryX=1;entryY=0.5;entryDx=0;entryDy=0;" edge="1" parent="1c1d494c118603dd-3" source="HRE3_yIJ3wqLc0qZuIb_-42" target="HRE3_yIJ3wqLc0qZuIb_-3">
          <mxGeometry relative="1" as="geometry" />
        </mxCell>
        <mxCell id="HRE3_yIJ3wqLc0qZuIb_-42" value="Page Student" style="rounded=1;whiteSpace=wrap;html=1;" vertex="1" parent="1c1d494c118603dd-3">
          <mxGeometry x="150" y="820" width="90" height="60" as="geometry" />
        </mxCell>
        <mxCell id="HRE3_yIJ3wqLc0qZuIb_-46" style="edgeStyle=orthogonalEdgeStyle;rounded=0;orthogonalLoop=1;jettySize=auto;html=1;exitX=0.5;exitY=1;exitDx=0;exitDy=0;entryX=0;entryY=0.5;entryDx=0;entryDy=0;" edge="1" parent="1c1d494c118603dd-3" source="HRE3_yIJ3wqLc0qZuIb_-43" target="HRE3_yIJ3wqLc0qZuIb_-3">
          <mxGeometry relative="1" as="geometry" />
        </mxCell>
        <mxCell id="HRE3_yIJ3wqLc0qZuIb_-43" value="Page tutor" style="rounded=1;whiteSpace=wrap;html=1;" vertex="1" parent="1c1d494c118603dd-3">
          <mxGeometry x="10" y="820" width="90" height="60" as="geometry" />
        </mxCell>
        <mxCell id="HRE3_yIJ3wqLc0qZuIb_-19" value="" style="edgeStyle=orthogonalEdgeStyle;rounded=0;orthogonalLoop=1;jettySize=auto;html=1;" edge="1" parent="1c1d494c118603dd-1" source="HRE3_yIJ3wqLc0qZuIb_-5" target="HRE3_yIJ3wqLc0qZuIb_-6">
          <mxGeometry relative="1" as="geometry" />
        </mxCell>
        <mxCell id="HRE3_yIJ3wqLc0qZuIb_-48" value="No" style="edgeLabel;html=1;align=center;verticalAlign=middle;resizable=0;points=[];" vertex="1" connectable="0" parent="HRE3_yIJ3wqLc0qZuIb_-19">
          <mxGeometry x="-0.1541" y="2" relative="1" as="geometry">
            <mxPoint x="-1" as="offset" />
          </mxGeometry>
        </mxCell>
        <mxCell id="HRE3_yIJ3wqLc0qZuIb_-21" style="edgeStyle=orthogonalEdgeStyle;rounded=0;orthogonalLoop=1;jettySize=auto;html=1;exitX=0.5;exitY=1;exitDx=0;exitDy=0;entryX=1;entryY=0.5;entryDx=0;entryDy=0;" edge="1" parent="1c1d494c118603dd-1" source="HRE3_yIJ3wqLc0qZuIb_-6" target="HRE3_yIJ3wqLc0qZuIb_-17">
          <mxGeometry relative="1" as="geometry" />
        </mxCell>
        <mxCell id="HRE3_yIJ3wqLc0qZuIb_-23" style="edgeStyle=orthogonalEdgeStyle;rounded=0;orthogonalLoop=1;jettySize=auto;html=1;exitX=0.5;exitY=1;exitDx=0;exitDy=0;entryX=0;entryY=0.5;entryDx=0;entryDy=0;" edge="1" parent="1c1d494c118603dd-1" source="HRE3_yIJ3wqLc0qZuIb_-17" target="HRE3_yIJ3wqLc0qZuIb_-22">
          <mxGeometry relative="1" as="geometry" />
        </mxCell>
        <mxCell id="HRE3_yIJ3wqLc0qZuIb_-27" style="edgeStyle=orthogonalEdgeStyle;rounded=0;orthogonalLoop=1;jettySize=auto;html=1;exitX=0;exitY=0.5;exitDx=0;exitDy=0;entryX=1;entryY=0.5;entryDx=0;entryDy=0;" edge="1" parent="1c1d494c118603dd-1" source="HRE3_yIJ3wqLc0qZuIb_-25" target="HRE3_yIJ3wqLc0qZuIb_-16">
          <mxGeometry relative="1" as="geometry" />
        </mxCell>
        <mxCell id="HRE3_yIJ3wqLc0qZuIb_-33" style="edgeStyle=orthogonalEdgeStyle;rounded=0;orthogonalLoop=1;jettySize=auto;html=1;exitX=1;exitY=0.5;exitDx=0;exitDy=0;entryX=0.5;entryY=1;entryDx=0;entryDy=0;" edge="1" parent="1c1d494c118603dd-1" source="HRE3_yIJ3wqLc0qZuIb_-31" target="HRE3_yIJ3wqLc0qZuIb_-25">
          <mxGeometry relative="1" as="geometry" />
        </mxCell>
        <mxCell id="HRE3_yIJ3wqLc0qZuIb_-50" value="No" style="edgeLabel;html=1;align=center;verticalAlign=middle;resizable=0;points=[];" vertex="1" connectable="0" parent="HRE3_yIJ3wqLc0qZuIb_-33">
          <mxGeometry x="-0.3675" relative="1" as="geometry">
            <mxPoint x="-1" as="offset" />
          </mxGeometry>
        </mxCell>
        <mxCell id="HRE3_yIJ3wqLc0qZuIb_-35" style="edgeStyle=orthogonalEdgeStyle;rounded=0;orthogonalLoop=1;jettySize=auto;html=1;exitX=0.5;exitY=1;exitDx=0;exitDy=0;entryX=0;entryY=0.5;entryDx=0;entryDy=0;" edge="1" parent="1c1d494c118603dd-1" source="HRE3_yIJ3wqLc0qZuIb_-31" target="HRE3_yIJ3wqLc0qZuIb_-34">
          <mxGeometry relative="1" as="geometry" />
        </mxCell>
        <mxCell id="HRE3_yIJ3wqLc0qZuIb_-51" value="Yes" style="edgeLabel;html=1;align=center;verticalAlign=middle;resizable=0;points=[];" vertex="1" connectable="0" parent="HRE3_yIJ3wqLc0qZuIb_-35">
          <mxGeometry x="-0.054" y="2" relative="1" as="geometry">
            <mxPoint as="offset" />
          </mxGeometry>
        </mxCell>
        <mxCell id="HRE3_yIJ3wqLc0qZuIb_-38" style="edgeStyle=orthogonalEdgeStyle;rounded=0;orthogonalLoop=1;jettySize=auto;html=1;exitX=0;exitY=0.5;exitDx=0;exitDy=0;entryX=0;entryY=0.5;entryDx=0;entryDy=0;" edge="1" parent="1c1d494c118603dd-1" source="HRE3_yIJ3wqLc0qZuIb_-36" target="HRE3_yIJ3wqLc0qZuIb_-16">
          <mxGeometry relative="1" as="geometry" />
        </mxCell>
        <mxCell id="HRE3_yIJ3wqLc0qZuIb_-52" value="No" style="edgeLabel;html=1;align=center;verticalAlign=middle;resizable=0;points=[];" vertex="1" connectable="0" parent="HRE3_yIJ3wqLc0qZuIb_-38">
          <mxGeometry x="-0.4016" y="-2" relative="1" as="geometry">
            <mxPoint x="-1" as="offset" />
          </mxGeometry>
        </mxCell>
      </root>
    </mxGraphModel>
  </diagram>
</mxfile>
